<?xml version="1.0" encoding="UTF-8"?><svg id="uuid-d1714e8c-ab5f-41e0-9c00-2260a288ce31" xmlns="http://www.w3.org/2000/svg" viewBox="0 0 234.32 183.16"><path d="M233.84,90.39c-2.99,22.39-19.72,43.72-44.77,57.01-18.89,10.04-40.83,15.8-63.53,16.82-.49,1.51-1.34,3.01-2.56,4.52l-.15.19c-8.97,10.43-28.01,15.07-41.36,14.11-5.61-.49-13.24-1.83-14.63-7.78-.3-1.64.19-3.56,1.28-4.9.55-.7,1.51-1.54,3.01-1.7,2.98-.55,5.33-1.39,7.19-2.62l.17-.11.08-.13c.09-.06.19-.13.26-.19,1.3-.98,2.91-2.77,1.52-4.42-.61-.72-1.54-1.08-2.43-1.39-5.7-1.98-11.46-3.54-17.1-5.73-13.5-5.25-25.5-12.37-35.67-21.19-10.32-8.87-18.04-20.34-22.38-33.19-3.47-10.4-3.69-22.28-.6-33.47C11.73,31.29,47.43,14.81,62.33,9.32,90.16-.88,121.39-2.75,152.62,3.92c6.95,1.43,13.99,3.54,21.02,6.27,2.2.85,4.39,1.77,6.54,2.71,3.82,1.73,7.23,3.41,10.38,5.18.7.4,3.96,2.39,3.96,2.39l.62.24.64.43,1.05,1,.73.24c8.95,5.99,16.42,12.75,22.24,20.12,11.09,13.99,16.2,31.45,14.03,47.88Z" style="fill:#ffd05d; stroke-width:0px;"></path><path d="M167.91,100.2c-.56,0-1.12-.03-1.67-.08-1.47-.15-2.88-.48-4.2-.99-1.48-.57-2.8-1.36-3.95-2.35-1.53-1.31-2.43-3.32-2.92-4.78-.72-2.13.42-4.44,2.55-5.15,1.15-.39,2.42-.25,3.45.4.7.44,1.16,1.1,1.53,1.82.24.48.39.95.74,1.37.44.52.9.86,1.53,1.11.63.25,1.33.4,2.08.48,1.42.14,3.01.01,4.28-.71.64-.36,1.17-.89,1.46-1.57.34-.8.52-1.53,1.15-2.17.89-.91,2.18-1.36,3.44-1.19,2.23.3,3.79,2.34,3.49,4.57-.4,3.03-2.49,5.82-5.58,7.46-2.2,1.17-4.77,1.79-7.39,1.79Z" style="fill:#532822; stroke-width:0px;"></path><path d="M153.66,77.52c-.68,1.6-1.57,3.01-2.66,4.2-1.1,1.2-2.5,2.09-4.06,2.56-1.26.38-2.68.36-4.01-.04-4.15-1.27-6-5.6-6.61-7.41-1.13-3.37-1.24-7.12-.33-10.84.2-.83.47-1.67.83-2.5.11-.26.23-.52.35-.77.22-.45.43-.85.66-1.23.05-.08.3-.47.3-.47l.03-.07.05-.08.12-.12.03-.09c.75-1.05,1.59-1.92,2.49-2.6,1.72-1.28,3.83-1.83,5.79-1.51,2.67.44,5.17,2.52,6.68,5.57,1.54,3.1,2.12,6.85,1.63,10.55-.22,1.73-.66,3.36-1.28,4.85Z" style="fill:#532822; stroke-width:0px;"></path><path d="M199.52,77.52c-.68,1.6-1.57,3.01-2.66,4.2-1.1,1.2-2.5,2.09-4.06,2.56-1.26.38-2.68.36-4.01-.04-4.15-1.27-6-5.6-6.61-7.41-1.13-3.37-1.24-7.12-.33-10.84.2-.83.47-1.67.83-2.5.11-.26.23-.52.35-.77.22-.45.43-.85.66-1.23.05-.08.3-.47.3-.47l.03-.07.05-.08.12-.12.03-.09c.75-1.05,1.59-1.92,2.49-2.6,1.72-1.28,3.83-1.83,5.79-1.51,2.67.44,5.17,2.52,6.68,5.57,1.54,3.1,2.12,6.85,1.63,10.55-.22,1.73-.66,3.36-1.28,4.85Z" style="fill:#532822; stroke-width:0px;"></path></svg>