<?xml version="1.0" encoding="UTF-8"?><svg xmlns="http://www.w3.org/2000/svg" viewBox="0 0 234.32 244.18"><g id="uuid-1ef77481-a564-4555-8967-84e71781a1ab"><path d="M233.84,90.39c-2.99,22.39-19.72,43.72-44.77,57.01-18.89,10.04-40.83,15.8-63.53,16.82-.49,1.51-1.34,3.01-2.56,4.52l-.15.19c-8.97,10.43-28.01,15.07-41.36,14.11-5.61-.49-13.24-1.83-14.63-7.78-.3-1.64.19-3.56,1.28-4.9.55-.7,1.51-1.54,3.01-1.7,2.98-.55,5.33-1.39,7.19-2.62l.17-.11.08-.13c.09-.06.19-.13.26-.19,1.3-.98,2.91-2.77,1.52-4.42-.61-.72-1.54-1.08-2.43-1.39-5.7-1.98-11.46-3.54-17.1-5.73-13.5-5.25-25.5-12.37-35.67-21.19-10.32-8.87-18.04-20.34-22.38-33.19-3.47-10.4-3.69-22.28-.6-33.47C11.73,31.29,47.43,14.81,62.33,9.32,90.16-.88,121.39-2.75,152.62,3.92c6.95,1.43,13.99,3.54,21.02,6.27,2.2.85,4.39,1.77,6.54,2.71,3.82,1.73,7.23,3.41,10.38,5.18.7.4,3.96,2.39,3.96,2.39l.62.24.64.43,1.05,1,.73.24c8.95,5.99,16.42,12.75,22.24,20.12,11.09,13.99,16.2,31.45,14.03,47.88Z" style="fill:#ffd05d; stroke-width:0px;"></path><path d="M101.72,243.78c-7.31-.48-14.23-1.38-20.57-2.67-6.42-1.3-12.05-3.21-16.3-5.53-3.43-1.87-5.56-4.16-6.01-6.45-1.43-7.14,12.7-11.75,18.85-13.4,11.48-3.09,25.99-4.7,41.97-4.65,3.54,0,7.26.13,11.06.37,1.19.08,2.38.17,3.56.27,2.11.18,4.02.37,5.82.58.4.05,2.29.31,2.29.31l.33.02.38.06.67.15.39.02c5.28.8,9.99,1.81,14.01,3,7.66,2.26,13.07,5.44,14.85,8.7,2.41,4.45-1.89,9.24-11.52,12.81-9.8,3.64-23.58,5.99-38.81,6.63-7.13.3-14.19.23-20.98-.22Z" style="fill:#fff2e9; stroke-width:0px;"></path><path d="M153.66,77.52c-.68,1.6-1.57,3.01-2.66,4.2-1.1,1.2-2.5,2.09-4.06,2.56-1.26.38-2.68.36-4.01-.04-4.15-1.27-6-5.6-6.61-7.41-1.13-3.37-1.24-7.12-.33-10.84.2-.83.47-1.67.83-2.5.11-.26.23-.52.35-.77.22-.45.43-.85.66-1.23.05-.08.3-.47.3-.47l.03-.07.05-.08.12-.12.03-.09c.75-1.05,1.59-1.92,2.49-2.6,1.72-1.28,3.83-1.83,5.79-1.51,2.67.44,5.17,2.52,6.68,5.57,1.54,3.1,2.12,6.85,1.63,10.55-.22,1.73-.66,3.36-1.28,4.85Z" style="fill:#532822; stroke-width:0px;"></path><path d="M199.52,77.52c-.68,1.6-1.57,3.01-2.66,4.2-1.1,1.2-2.5,2.09-4.06,2.56-1.26.38-2.68.36-4.01-.04-4.15-1.27-6-5.6-6.61-7.41-1.13-3.37-1.24-7.12-.33-10.84.2-.83.47-1.67.83-2.5.11-.26.23-.52.35-.77.22-.45.43-.85.66-1.23.05-.08.3-.47.3-.47l.03-.07.05-.08.12-.12.03-.09c.75-1.05,1.59-1.92,2.49-2.6,1.72-1.28,3.83-1.83,5.79-1.51,2.67.44,5.17,2.52,6.68,5.57,1.54,3.1,2.12,6.85,1.63,10.55-.22,1.73-.66,3.36-1.28,4.85Z" style="fill:#532822; stroke-width:0px;"></path></g><g id="uuid-ce0ce519-ad80-43c5-a7d8-8a5646a9313b"><path d="M161.72,107.08c-1.63-.58-3.1-1.39-4.35-2.41-1.27-1.03-2.23-2.37-2.79-3.9-.45-1.23-.52-2.65-.19-4.01,1.02-4.22,5.24-6.32,7.01-7.02,3.3-1.32,7.03-1.65,10.8-.96.84.15,1.69.38,2.54.68.27.09.53.2.79.3.46.19.88.38,1.26.58.08.05.48.27.48.27l.07.03.08.05.13.12.09.03c1.09.69,2.01,1.47,2.73,2.33,1.38,1.64,2.05,3.71,1.85,5.69-.28,2.69-2.21,5.3-5.16,6.98-3.01,1.71-6.71,2.51-10.42,2.24-1.74-.12-3.39-.46-4.91-1Z" style="fill:#532822; stroke-width:0px;"></path></g></svg>